<?xml version="1.0" standalone="no"?>
<!DOCTYPE svg PUBLIC "-//W3C//DTD SVG 20010904//EN"
 "http://www.w3.org/TR/2001/REC-SVG-20010904/DTD/svg10.dtd">
<svg version="1.0" xmlns="http://www.w3.org/2000/svg"
 width="500.000000pt" height="500.000000pt" viewBox="0 0 500.000000 500.000000"
 preserveAspectRatio="xMidYMid meet">
<metadata>
Created by potrace 1.14, written by Peter Selinger 2001-2017
</metadata>
<g transform="translate(0.000000,500.000000) scale(0.100000,-0.100000)"
fill="#000000" stroke="none">
<path d="M0 2500 l0 -2500 2500 0 2500 0 0 2500 0 2500 -2500 0 -2500 0 0
-2500z m2388 1529 c3 -19 1 -22 -9 -11 -7 6 -30 12 -51 12 -41 0 -44 -6 -32
-69 6 -29 10 -32 33 -26 14 4 29 12 33 18 10 17 22 -19 13 -40 -5 -12 -9 -14
-12 -5 -7 17 -52 15 -59 -3 -3 -8 -2 -32 3 -52 7 -33 13 -38 40 -41 24 -2 36
3 52 24 l21 27 0 -32 c0 -28 -3 -31 -32 -31 -17 0 -73 -7 -124 -16 -50 -9
-102 -14 -115 -11 -13 4 -44 25 -69 47 -25 22 -49 40 -53 40 -16 0 4 -85 24
-102 19 -16 19 -17 -18 -27 -54 -15 -68 -14 -54 3 15 18 -30 195 -54 212 -21
16 -19 21 13 26 15 3 48 11 73 18 42 12 50 12 73 -3 30 -20 35 -61 10 -88 -20
-22 -13 -34 44 -70 48 -30 106 -39 114 -16 8 21 -12 190 -24 204 -16 20 -7 24
69 32 85 10 87 10 91 -20z m291 14 c3 -2 -3 -9 -13 -16 -12 -9 -19 -37 -26
-106 -6 -51 -8 -97 -4 -102 10 -16 86 -10 107 9 19 16 19 16 13 -5 -6 -17 -3
-23 8 -23 17 0 82 77 128 153 22 34 36 47 53 47 22 0 23 -4 30 -112 4 -64 13
-125 21 -140 8 -16 13 -28 11 -28 -2 0 -28 7 -57 16 -43 13 -51 18 -37 25 11
6 17 22 17 43 0 27 -5 35 -24 40 -13 3 -31 9 -39 12 -23 8 -53 -52 -36 -72 10
-13 4 -14 -47 -8 -32 3 -83 10 -113 15 -30 5 -70 9 -89 9 -33 0 -34 1 -19 18
9 10 20 53 26 107 14 111 14 101 -4 119 -14 14 -10 15 37 9 29 -3 55 -7 57
-10z m489 -112 c30 -15 32 -19 18 -30 -12 -10 -16 -33 -16 -92 0 -44 4 -79 8
-79 5 0 17 9 27 20 14 15 17 32 13 88 l-4 70 42 -21 c36 -17 40 -22 28 -34
-15 -16 -19 -53 -6 -53 10 0 40 31 41 43 1 11 5 11 24 1 16 -9 14 -12 -17 -29
-43 -23 -58 -51 -54 -98 l3 -36 58 53 c31 29 57 60 57 69 0 13 5 14 22 8 31
-11 33 -27 6 -35 -13 -3 -59 -40 -103 -81 -44 -41 -83 -75 -87 -75 -5 0 -8 25
-8 55 0 30 -4 55 -9 55 -4 0 -24 -13 -42 -30 -19 -16 -38 -28 -43 -27 -12 4
-13 277 -1 277 6 -1 25 -9 43 -19z m-1297 -30 c31 -25 33 -96 4 -117 -27 -20
-37 -17 -23 6 11 17 10 26 -7 58 -16 29 -27 38 -52 40 -41 4 -42 -7 -8 -85 14
-32 31 -70 38 -85 6 -15 21 -31 32 -36 19 -8 18 -10 -10 -24 -17 -9 -41 -19
-55 -23 -21 -7 -23 -6 -12 7 14 17 12 25 -29 116 -16 35 -29 67 -29 72 0 5
-10 15 -22 21 -21 12 -20 14 37 40 71 33 104 36 136 10z m659 -10 c0 -12 -26
-21 -61 -21 -32 0 -40 16 -11 23 31 8 72 7 72 -2z m-965 -232 c46 -33 95 -63
109 -67 24 -7 23 -8 -25 -40 -48 -32 -49 -32 -44 -9 5 18 0 28 -21 41 -25 17
-27 17 -53 -1 -34 -26 -38 -56 -11 -83 l21 -21 -23 -19 c-30 -25 -41 -25 -33
-1 5 17 -39 218 -50 229 -2 3 0 13 6 24 13 25 22 21 124 -53z m2041 11 c27
-11 64 -46 64 -61 0 -8 -28 -39 -36 -39 -3 0 -3 9 1 20 9 28 -12 60 -39 60
-33 0 -38 -21 -21 -86 20 -79 -1 -124 -61 -124 -59 0 -106 56 -88 104 10 27
24 18 24 -16 0 -51 27 -75 63 -56 21 11 22 42 2 98 -13 37 -13 45 0 70 13 25
26 34 57 39 4 0 19 -4 34 -9z m-2303 -76 c-4 -11 20 -42 78 -100 64 -64 81
-87 70 -93 -7 -5 -70 -7 -140 -4 l-126 5 58 -57 c42 -42 63 -56 77 -52 26 7
25 -1 -2 -30 -26 -28 -38 -29 -38 -5 0 10 -29 48 -65 85 -51 53 -70 67 -85 62
-26 -8 -25 9 2 34 20 19 30 20 142 15 l121 -6 -55 56 c-38 40 -60 54 -72 50
-24 -7 -23 5 4 33 25 27 40 30 31 7z m2485 -84 c66 -40 90 -121 55 -182 -21
-35 -80 -68 -120 -68 -64 0 -133 73 -133 140 0 98 114 161 198 110z m-1240
-62 c15 -13 16 -70 0 -86 -7 -7 -10 -12 -7 -13 2 0 31 -3 64 -5 76 -6 151 -40
280 -131 154 -108 211 -124 266 -75 26 23 31 33 25 55 -6 26 -36 39 -36 16 0
-16 -42 -6 -53 13 -16 24 8 48 48 48 42 0 85 -47 85 -92 0 -70 -87 -127 -175
-115 -25 4 -45 3 -45 -3 0 -5 19 -48 41 -97 23 -48 59 -126 81 -173 92 -197
90 -184 32 -244 -58 -59 -108 -80 -194 -80 -65 0 -83 4 -129 29 -51 28 -111
93 -111 120 0 7 27 71 61 141 34 71 77 163 96 204 19 41 42 90 51 109 10 21
12 36 6 38 -6 2 -47 28 -92 58 -88 59 -154 92 -201 101 -28 6 -29 5 -28 -31 1
-37 -13 -55 -44 -55 -14 0 -16 -16 -16 -112 0 -83 -4 -123 -16 -152 -15 -33
-17 -80 -17 -323 0 -209 3 -290 13 -306 6 -12 19 -42 27 -67 14 -41 18 -45 50
-48 47 -3 166 -30 215 -48 73 -28 115 -48 115 -56 0 -4 -198 -8 -440 -8 -242
0 -440 4 -440 8 0 21 161 77 265 92 101 15 108 19 117 64 5 21 15 47 23 59 23
33 22 575 -1 638 -11 31 -16 77 -16 152 0 93 -2 107 -16 107 -32 0 -45 17 -44
54 2 40 -5 42 -58 23 -48 -18 -91 -41 -187 -103 l-82 -53 18 -38 c10 -21 29
-60 41 -88 13 -27 43 -93 67 -145 111 -235 106 -215 62 -271 -93 -118 -277
-128 -390 -22 -26 25 -51 53 -54 62 -5 16 13 59 137 321 22 47 46 99 54 116
l13 31 -68 -1 c-56 -1 -73 3 -104 24 -64 44 -74 99 -28 149 45 48 119 37 109
-16 -3 -19 -58 -32 -58 -14 0 19 -28 12 -35 -9 -8 -24 9 -55 41 -76 50 -33
126 -5 272 103 98 72 185 112 258 117 33 2 61 5 64 5 2 1 -1 6 -8 13 -13 13
-16 57 -4 74 21 32 68 37 100 12z m-1362 -171 c72 -65 52 -176 -39 -221 -108
-53 -221 67 -168 177 26 53 63 76 124 77 40 0 53 -5 83 -33z m2793 -14 c60
-45 88 -117 56 -143 -21 -17 -29 -7 -15 19 8 17 7 29 -5 55 -30 62 -96 70
-162 20 -71 -54 -62 -142 18 -165 32 -10 37 -14 24 -22 -27 -15 -58 0 -87 41
-53 76 -43 160 24 202 40 26 107 22 147 -7z m-2333 -115 c-7 -49 -39 -118 -54
-118 -10 0 -56 -68 -64 -94 -3 -12 -4 15 -1 59 7 102 22 137 74 174 23 17 44
31 47 31 2 0 1 -24 -2 -52z m1787 -8 c27 -31 32 -51 42 -155 5 -57 5 -58 -8
-30 -8 17 -34 54 -59 83 -42 49 -58 87 -58 145 0 16 2 16 29 3 16 -9 40 -29
54 -46z m686 -100 c26 -50 26 -48 -2 -43 -32 6 -185 -71 -195 -98 -7 -17 -11
-13 -34 30 l-25 50 27 -5 c19 -4 50 6 108 35 75 37 87 49 83 74 -3 19 18 -6
38 -43z m-3130 -37 c73 -25 98 -30 113 -22 11 6 19 7 17 2 -2 -4 -11 -25 -19
-45 -13 -35 -30 -51 -30 -29 0 11 -131 63 -139 56 -3 -3 23 -34 57 -68 34 -34
62 -66 62 -70 0 -4 -38 -7 -84 -7 -47 0 -87 -4 -90 -9 -3 -5 20 -21 51 -36 46
-21 61 -24 80 -16 27 13 28 7 4 -38 -17 -31 -19 -33 -25 -14 -4 12 -39 37 -91
64 -76 39 -87 43 -106 31 -21 -13 -21 -12 -15 15 13 51 21 54 117 47 110 -8
112 -2 29 81 -64 63 -66 68 -49 112 l12 28 6 -25 c6 -20 23 -30 100 -57z m492
-73 c7 -22 15 -37 19 -35 5 3 10 -2 14 -10 4 -11 12 -8 34 15 32 32 78 48 93
33 16 -16 -33 -75 -89 -107 l-52 -30 0 -61 0 -60 19 31 c21 34 57 64 78 64 16
0 17 -44 2 -73 -6 -12 -27 -38 -46 -58 -18 -20 -38 -49 -43 -65 -6 -21 -9 -24
-10 -9 0 12 -22 35 -55 57 -48 34 -54 43 -64 89 -7 32 -8 57 -2 67 8 15 15 11
50 -26 23 -24 41 -50 41 -58 0 -8 5 -12 10 -9 6 3 10 28 10 55 0 43 -5 55 -40
95 -36 42 -40 52 -40 100 0 29 3 61 7 71 6 15 9 14 29 -10 13 -14 29 -44 35
-66z m2112 42 c9 -52 -7 -103 -43 -137 -16 -16 -30 -35 -30 -42 0 -7 -4 -13
-10 -13 -5 0 -10 4 -10 10 0 5 -22 21 -49 35 -69 34 -121 115 -76 115 23 0 92
-37 98 -52 5 -15 47 27 47 46 0 18 50 87 59 81 5 -2 11 -22 14 -43z m613 -140
c14 -32 18 -62 10 -62 -2 0 -11 -3 -19 -6 -12 -4 -14 3 -10 40 5 36 2 47 -11
52 -15 6 -71 -11 -89 -26 -12 -10 14 -50 33 -50 11 -1 10 -4 -4 -15 -30 -22
-47 -19 -41 8 9 40 -8 52 -55 38 -22 -7 -44 -19 -47 -27 -8 -21 16 -63 47 -79
l25 -14 -31 -1 c-29 0 -33 4 -52 58 -11 31 -24 69 -27 83 -6 24 -4 26 17 22
31 -6 189 52 201 73 8 15 12 11 24 -22 8 -21 21 -54 29 -72z m-579 -91 c-9
-63 -25 -90 -76 -123 -28 -18 -52 -42 -54 -53 -3 -16 -5 -14 -6 6 0 15 -16 39
-37 60 -53 51 -85 139 -49 139 23 0 85 -60 86 -84 1 -16 2 -17 6 -3 5 19 23
23 23 5 0 -7 9 3 21 22 24 41 69 81 82 73 5 -3 7 -22 4 -42z m-2724 -45 c46
-19 69 -49 74 -99 16 -141 -149 -212 -235 -102 -33 42 -31 123 5 165 42 50 94
63 156 36z m3349 -19 c-4 -30 12 -108 33 -169 l13 -38 -29 0 c-29 0 -29 0 -14
24 21 32 5 66 -31 66 -54 0 -169 -32 -186 -52 -18 -20 -18 -20 -18 5 0 14 -5
38 -10 53 -12 32 -6 42 14 25 15 -13 32 -11 121 9 22 5 52 11 68 15 21 4 27
11 27 30 0 14 -9 30 -20 37 -28 18 -25 30 8 26 23 -3 27 -7 24 -31z m-2622
-130 c0 -27 -9 -56 -25 -82 -13 -22 -25 -53 -25 -69 0 -27 -1 -28 -18 -13 -10
9 -38 23 -62 32 -55 19 -67 30 -91 76 -38 76 -13 87 63 28 42 -33 45 -34 51
-16 2 6 2 -1 -1 -17 -7 -45 16 -22 29 30 11 44 52 89 70 78 5 -3 9 -24 9 -47z
m1787 31 c11 -13 27 -41 34 -63 7 -22 14 -42 16 -44 1 -1 14 9 30 24 32 30
102 69 110 61 9 -9 -5 -50 -29 -86 -16 -24 -39 -40 -73 -53 -28 -10 -56 -25
-62 -34 -12 -15 -13 -15 -13 3 -1 10 -14 44 -30 74 -36 66 -41 140 -10 140 4
0 16 -10 27 -22z m-1721 -195 c5 -34 2 -61 -10 -94 -19 -55 -21 -89 -4 -89 6
0 8 -3 5 -7 -4 -3 -16 2 -26 11 -11 10 -39 20 -63 23 -61 7 -86 21 -121 72
l-30 44 45 -6 c25 -3 62 -16 81 -27 39 -23 41 -21 52 30 9 44 36 90 52 90 6 0
15 -21 19 -47z m1664 7 c11 -21 20 -50 20 -64 0 -36 11 -38 65 -11 27 14 61
25 76 25 l28 0 -20 -35 c-28 -48 -65 -71 -124 -80 -27 -4 -57 -13 -66 -21 -14
-12 -15 -11 -11 14 2 16 -3 46 -12 66 -18 44 -20 83 -6 120 13 36 26 32 50
-14z m940 -10 c0 -46 -2 -49 -18 -39 -15 9 -26 7 -55 -12 -20 -13 -37 -28 -37
-32 0 -4 19 -16 42 -27 39 -17 43 -17 55 -2 11 15 12 11 13 -27 l0 -44 -22 20
c-51 45 -94 63 -151 63 -31 0 -59 -5 -62 -10 -13 -21 -25 3 -25 48 0 36 3 43
12 34 7 -7 34 -12 61 -12 41 0 59 6 101 37 28 20 53 40 54 45 2 4 10 8 18 8
10 0 14 -14 14 -50z m-3479 11 c28 -29 37 -51 21 -51 -4 0 -13 5 -19 11 -16
16 -87 16 -107 0 -20 -17 -21 -47 0 -55 27 -10 194 -7 216 5 18 10 20 9 15 -6
-4 -9 -7 -32 -7 -50 0 -34 0 -34 -27 -19 -36 18 -193 19 -212 2 -11 -11 -12 2
-9 70 3 74 6 86 27 103 33 27 68 24 102 -10z m2432 -286 c-3 -9 -8 -14 -10
-11 -3 3 -2 9 2 15 9 16 15 13 8 -4z m-478 -435 l27 -29 -45 -108 c-25 -59
-57 -139 -71 -178 -15 -38 -31 -79 -36 -90 -24 -48 -48 -131 -40 -139 5 -5 47
-1 97 10 49 9 96 15 105 11 17 -6 33 -60 23 -77 -3 -5 -42 -10 -85 -10 -44 0
-102 -5 -129 -11 -46 -10 -54 -8 -81 11 -40 29 -46 59 -21 108 47 93 132 335
162 462 7 30 17 60 21 66 13 17 42 6 73 -26z m-867 9 c56 -27 82 -69 82 -132
0 -85 -54 -157 -147 -199 -45 -20 -134 -28 -169 -15 -18 6 -24 -2 -56 -80 -19
-49 -42 -112 -49 -142 -15 -60 -28 -70 -63 -47 -40 26 -40 49 -3 133 86 192
157 371 157 395 0 14 -26 9 -75 -17 -26 -14 -48 -24 -50 -23 -44 63 -44 73 -3
94 108 56 295 72 376 33z m536 -2 c136 -77 104 -248 -62 -325 -54 -25 -142
-34 -174 -18 -14 6 -22 -2 -41 -46 -13 -29 -37 -95 -52 -145 -33 -104 -46
-114 -88 -63 l-25 29 77 183 c94 221 123 302 110 307 -6 2 -33 -9 -61 -23 -27
-14 -54 -23 -59 -20 -16 10 -38 60 -31 71 24 36 161 72 277 72 75 1 96 -3 129
-22z m979 -5 c43 -19 47 -24 47 -56 0 -18 -8 -43 -17 -55 l-18 -21 -44 30
c-59 40 -112 53 -191 48 -66 -5 -105 -21 -115 -47 -10 -26 52 -74 182 -141
150 -77 173 -102 173 -187 0 -98 -62 -176 -151 -191 -136 -24 -349 76 -349
164 0 27 26 84 38 84 4 0 15 -15 25 -33 36 -67 157 -123 264 -121 51 0 68 5
97 28 44 33 55 69 30 97 -10 11 -77 49 -150 84 -73 36 -146 79 -163 95 -71 71
-42 176 64 234 44 24 213 17 278 -12z"/>
<path d="M2002 3972 c-17 -11 -5 -92 15 -99 37 -14 59 59 27 91 -17 18 -24 19
-42 8z"/>
<path d="M2892 3918 c-23 -35 -15 -58 19 -58 15 0 19 8 19 39 0 52 -13 58 -38
19z"/>
<path d="M1473 3635 c8 -50 18 -58 45 -39 26 18 23 25 -20 55 l-31 23 6 -39z"/>
<path d="M3703 3479 c-69 -44 -97 -141 -51 -173 29 -20 46 -20 85 2 73 39 106
129 63 172 -25 25 -56 25 -97 -1z"/>
<path d="M2953 3078 c-5 -7 -17 -29 -25 -48 -9 -19 -29 -64 -46 -100 -16 -36
-44 -96 -62 -135 -18 -38 -41 -88 -51 -109 -33 -69 -41 -66 191 -66 141 0 210
3 210 11 0 10 -15 44 -70 164 -15 33 -41 89 -58 125 -16 36 -41 89 -54 118
-18 40 -27 50 -35 40z"/>
<path d="M2015 3038 c-10 -24 -35 -79 -56 -123 -20 -44 -58 -125 -83 -179 -25
-54 -46 -103 -46 -107 0 -5 97 -9 215 -9 118 0 215 2 215 4 0 3 -17 41 -80
181 -71 157 -130 275 -137 275 -5 0 -18 -19 -28 -42z"/>
<path d="M1012 3250 c-44 -41 -22 -104 48 -140 57 -29 104 -26 130 7 36 46 10
100 -65 134 -52 24 -86 24 -113 -1z"/>
<path d="M793 2649 c-41 -12 -67 -50 -59 -84 10 -39 61 -65 128 -65 51 0 59 3
82 31 31 37 32 43 6 79 -15 21 -34 31 -71 39 -27 6 -51 11 -52 10 -1 0 -17 -5
-34 -10z"/>
<path d="M1745 1530 c-30 -60 -55 -114 -55 -120 0 -25 127 -3 199 35 36 18 71
69 71 102 0 61 -40 93 -115 93 l-45 0 -55 -110z"/>
<path d="M2278 1525 c-32 -63 -58 -117 -58 -120 0 -10 75 -5 125 9 133 35 193
129 126 197 -25 25 -37 29 -83 29 l-53 0 -57 -115z"/>
</g>
</svg>
